<?xml version="1.0" encoding="iso-8859-1"?>
<!-- Generator: Adobe Illustrator 19.0.0, SVG Export Plug-In . SVG Version: 6.00 Build 0)  -->
<svg version="1.1" id="Layer_1" xmlns="http://www.w3.org/2000/svg" xmlns:xlink="http://www.w3.org/1999/xlink" x="0px" y="0px"
	 viewBox="0 0 475 475" style="enable-background:new 0 0 475 475;" xml:space="preserve">
<g>
	<g id="XMLID_42_">
		<g>
			<path style="fill:#FFFFFF;" d="M412.5,10c22.1,0,40,17.9,40,40s-17.9,40-40,40s-40-17.9-40-40S390.4,10,412.5,10z"/>
			<path style="fill:#F4661E;" d="M297.5,230c22.1,0,40,17.9,40,40s-17.9,40-40,40s-40-17.9-40-40S275.4,230,297.5,230z"/>
			<path style="fill:#F4661E;" d="M167.5,230c22.1,0,40,17.9,40,40s-17.9,40-40,40s-40-17.9-40-40S145.4,230,167.5,230z"/>
			<path style="fill:#AFB6BB;" d="M97.5,130c30.098,0,55.898,17.695,67.9,43.301c-56.104,13.301-101.904,41.504-127.002,77.803
				C28.496,238.398,22.5,222.402,22.5,205C22.5,163.594,56.094,130,97.5,130z"/>
			<path style="fill:#AFB6BB;" d="M452.5,205c0,17.402-5.996,33.398-15.898,46.104c-25.098-36.299-70.898-64.502-127.002-77.803
				C321.602,147.695,347.402,130,377.5,130C418.897,130,452.5,163.594,452.5,205z"/>
			<path style="fill:#FFFFFF;" d="M436.602,251.104C450,270.498,457.5,292.1,457.5,315c0,82.803-98.496,150-220,150
				s-220-67.197-220-150c0-22.9,7.5-44.502,20.898-63.896c25.098-36.299,70.898-64.502,127.002-77.803
				c22.598-5.4,46.807-8.301,72.1-8.301c25.303,0,49.502,2.9,72.1,8.301C365.703,186.602,411.504,214.805,436.602,251.104z
				 M337.5,270c0-22.1-17.9-40-40-40s-40,17.9-40,40s17.9,40,40,40S337.5,292.1,337.5,270z M207.5,270c0-22.1-17.9-40-40-40
				s-40,17.9-40,40s17.9,40,40,40S207.5,292.1,207.5,270z"/>
		</g>
		<g>
			<path style="fill:#231F20;" d="M448.7,251.361c9.049-13.827,13.8-29.714,13.8-46.361c0-46.869-38.131-85-85-85
				c-30.064,0-57.951,16.204-73.145,41.877c-17.319-3.67-35.236-5.883-53.496-6.607l38.403-128.013l73.298,20.36
				c-0.037,0.79-0.06,1.584-0.06,2.383c0,27.57,22.43,50,50,50s50-22.43,50-50s-22.43-50-50-50
				c-19.772,0-36.897,11.537-45.005,28.231L285.177,5.365c-5.246-1.458-10.691,1.547-12.255,6.762l-42.889,142.964
				c-20.298,0.448-40.21,2.723-59.389,6.786C155.451,136.204,127.563,120,97.5,120c-46.869,0-85,38.131-85,85
				c0,16.648,4.751,32.534,13.8,46.361C13.834,271.435,7.5,292.808,7.5,315c0,43.459,24.435,84.057,68.802,114.313
				C119.505,458.774,176.752,475,237.5,475s117.995-16.226,161.198-45.688C443.065,399.057,467.5,358.459,467.5,315
				C467.5,292.808,461.166,271.435,448.7,251.361z M412.5,20c16.542,0,30,13.458,30,30s-13.458,30-30,30s-30-13.458-30-30
				S395.958,20,412.5,20z M377.5,140c35.841,0,65,29.159,65,65c0,10.089-2.286,19.817-6.688,28.689
				c-25.356-29.857-64.624-53.51-110.961-66.739C336.933,150.081,356.202,140,377.5,140z M97.5,140
				c21.298,0,40.567,10.081,52.648,26.95c-46.337,13.23-85.605,36.882-110.961,66.739c-4.401-8.872-6.687-18.6-6.687-28.689
				C32.5,169.159,61.659,140,97.5,140z M387.43,412.789C347.515,440.009,294.269,455,237.5,455s-110.015-14.991-149.93-42.211
				C48.833,386.373,27.5,351.644,27.5,315c0-20.253,6.433-39.835,19.119-58.203c0.002-0.002,0.004-0.004,0.005-0.006
				c23.678-34.246,67.812-61.131,121.083-73.76c0.006-0.001,0.012-0.004,0.018-0.005v0.001C190.013,177.7,213.488,175,237.5,175
				s47.487,2.7,69.775,8.027v-0.001c0.006,0.001,0.012,0.004,0.018,0.005c53.272,12.629,97.405,39.514,121.083,73.76
				c0.001,0.002,0.003,0.004,0.005,0.006C441.067,275.165,447.5,294.747,447.5,315C447.5,351.644,426.167,386.373,387.43,412.789z"
				/>
			<path style="fill:#231F20;" d="M309.665,394.763C290.535,407.813,264.906,415,237.5,415s-53.035-7.188-72.165-20.237
				C147.386,382.518,137.5,366.621,137.5,350h-20c0,23.435,12.985,45.199,36.564,61.284C176.482,426.578,206.113,435,237.5,435
				s61.018-8.422,83.435-23.716C344.515,395.199,357.5,373.435,357.5,350h-20C337.5,366.621,327.614,382.518,309.665,394.763z"/>
			<path style="fill:#231F20;" d="M167.5,320c27.57,0,50-22.43,50-50s-22.43-50-50-50s-50,22.43-50,50S139.93,320,167.5,320z
				 M167.5,240c16.542,0,30,13.458,30,30s-13.458,30-30,30s-30-13.458-30-30S150.958,240,167.5,240z"/>
			<path style="fill:#231F20;" d="M297.5,320c27.57,0,50-22.43,50-50s-22.43-50-50-50s-50,22.43-50,50S269.93,320,297.5,320z
				 M297.5,240c16.542,0,30,13.458,30,30s-13.458,30-30,30s-30-13.458-30-30S280.958,240,297.5,240z"/>
		</g>
	</g>
</g>
<g>
</g>
<g>
</g>
<g>
</g>
<g>
</g>
<g>
</g>
<g>
</g>
<g>
</g>
<g>
</g>
<g>
</g>
<g>
</g>
<g>
</g>
<g>
</g>
<g>
</g>
<g>
</g>
<g>
</g>
</svg>
